<svg xmlns="http://www.w3.org/2000/svg" width="1240" height="1240"><path d="M0 620.001v620.001l620.25-.251 620.25-.251.251-619.75.251-619.75H0v620.001m.497.499c0 341 .114 480.649.253 310.332s.139-449.317 0-620S.497 279.5.497 620.5M651 222v5h-31v9.808l-10.5.715-10.5.716V248h-21v10h-20v11h-10v10h-11v10h-10v9.895l-5.25.303-5.25.302-.302 5.25-.303 5.25H506v10h-10v21h-11v10h-10v31h-10v31h10v-10h31v-9.761l10.5-.716 10.5-.715V382h31v-10h21v-10.651l5 .151 5 .151v-5.325c0-5.118.108-5.33 2.75-5.432 6.995-.271 6.747-.092 6.789-4.894l.039-4.5 5.711-.3 5.711-.3V331h10v-9.808l10.5-.715 10.5-.716V310h41v-10h72v-11h31v-10h30.895l.303-5.25.302-5.25 5.25-.302 5.25-.303v-8.679l10-.716 10-.716V248h-20.794l.218-3.981c.288-5.289-.183-5.826-5.44-6.2l-4.484-.319-.299-4.607-.299-4.608-7.602-.642c-4.181-.354-13.384-.643-20.451-.643H775v-10H651v5m-465 21v5h-10v62h82v186h21v-11h10v-10h32v-10h30v-10h21v-11h31v-10h11v-10.5c0-11.507-.26-11.09 6.599-10.559 1.914.148 2.156-.517 2.75-7.54.358-4.237.651-10.962.651-14.945 0-7.941.201-8.197 6.25-7.964l3.75.145V351h9.707l.646-7.651c.356-4.208.647-10.958.647-15V321h10v-11h10v-21h10v-10h11v-10h10v-11h10v-10h10v-10H186v5m672 41v5h-21v11h-10v10H784.895l.303 5.25.302 5.25 10.25.285 10.25.285V341h19.895l.303 5.25.302 5.25 5.25.302 5.25.303V372h9.895l.303 5.25.302 5.25 4.674.302 4.673.301.704 9.929.704 9.928 4.622-.23 4.623-.23.275 15.75.276 15.75H877.742l.704 9.922c.436 6.152 1.15 10.068 1.879 10.307 1.016.333 75.096.236 79.175-.104 1.298-.108 1.5-4.236 1.5-30.625V393h-10v-5.333c0-2.934-.315-5.648-.699-6.033-.385-.384-.576-2.709-.425-5.167l.275-4.467H941v-21h-11v-21h-10v-10h-10v-10h-11v-21h-5.941c-5.654 0-7.866-.86-6.282-2.443.398-.398.776-2.26.841-4.14l.118-3.417H858v5m23.87-2.083c1.121 2.329.727 4.623-.74 4.308-.704-.151-.976.216-.604.817.371.6.925.84 1.232.533.307-.307 1.108-.101 1.78.456.923.767 1.158.272.963-2.024-.143-1.671.137-3.283.62-3.582.483-.299.879.009.879.683s.236.99.524.702c.287-.288.234-1.276-.119-2.196-.592-1.543-.755-1.535-2.105.107-1.163 1.413-1.363 1.454-.977.196.277-.903-.094-1.584-.864-1.584-.887 0-1.089.545-.589 1.584m-291.356 62.606c.349 1.637.676 3.465.727 4.06.051.596.667 1.084 1.37 1.084.703 0 1.19-.263 1.083-.584-.107-.321.256-.65.806-.733.55-.083.913.18.806.583-.107.404.38.734 1.083.734s1.278-.575 1.278-1.278c0-.703-.467-1.19-1.038-1.083-.571.107-1.115-.368-1.209-1.056-.093-.687-.28-1.587-.413-2-.134-.413-.216-1.012-.181-1.333.035-.321-.567-.584-1.338-.584-.77 0-1.095.488-.722 1.084 1.072 1.713 1.136 3.526.145 4.138-.501.31-.945.199-.988-.246-.215-2.279-.842-4.562-1.409-5.128-.349-.35-.35.704 0 2.342m5.517-2.023c0 .55.436 1.675.969 2.5.533.825.969 1.05.969.5s-.436-1.675-.969-2.5c-.533-.825-.969-1.05-.969-.5M527 418.465V424h-11v10h-40v9.761l-10.41.71-10.41.709-.674 10.16c-.37 5.588-.523 12.41-.34 15.16l.334 5 5.25-.038c2.887-.022 12.225-.134 20.75-.25L496 475v-10h21v10h10v30.895l5.25.303 5.25.302-.178 5.5c-.097 3.025.062 9.865.355 15.199l.532 9.7 4.645.3 4.646.301v10l-4.75.305-4.75.305V558h-32v-21h-10v-10h-31v31h10v31h11v-20h20v20h11v10h10v31h10v21h11v10h10v21h51v10h11v21h31l.118 4.25c.066 2.337.096 4.496.068 4.796-.076.833 9.516 1.127 42.314 1.298l30 .156.302-5.25.303-5.25h8.703l.661-10.25c.363-5.638.519-17.225.346-25.75l-.315-15.5-5.25-.302-5.25-.303V630h-72v-10h-31v-20.62l-3.75-.055c-2.062-.03-6.562-.116-10-.19L600 599v-10h-11v-11h-10v-10h-10v-9.895l-5.25-.303-5.25-.302-.131-4c-.073-2.2-.185-9.062-.25-15.25L558 527h-10v-7.849c0-4.317-.291-11.292-.647-15.5l-.646-7.651H538v-62h10.07l-.285-10.25-.285-10.25-10.25-.285-10.25-.285v5.535M403 470v5h-31v11h-10v10h-21v10h-10.341c-5.688 0-17.163.295-25.5.656l-15.159.656V517h-11v10h-21v102.761l10.5.716 10.5.715V703h-10v10h-11v21h21v10h11v10H319.761l.716 10.5.715 10.5H341v31h10v11h-10v51h-10v9.895l-5.25.303-5.25.302-.302 5.25-.303 5.25H310v10h-31v9.93l-10.25.285-10.25.285-.276 15.155-.275 15.155-40.392.345c-22.215.19-40.736.69-41.158 1.112-.421.422-.967 12.009-1.212 25.75L174.74 992H217v-19.808l10.5-.715 10.5-.716V961H288.895l.303-5.25.302-5.25 5.007-.5c4.975-.497 5.006-.522 4.943-4-.11-6.011-.131-6 11.157-6H321v-10h31v-10h30v-11h31v-20h7.849c4.317 0 11.27-.289 15.451-.643l7.602-.642.299-4.608.299-4.607 15.25-.276 15.25-.276V868h21v-9.93l10.25-.285 10.25-.285.299-4.607.299-4.608 7.602-.642c4.181-.354 11.134-.643 15.451-.643H548v-10h41v-19.707l7.651-.646c4.208-.356 11.183-.647 15.5-.647H620v-10h31v-9.895l5.25-.303 5.25-.302.299-4.61.299-4.61 6.701-.633c3.686-.348 10.413-.636 14.951-.64L692 785v-10H724.105l-.303-5.25-.302-5.25-20.75-.27-20.75-.271v-8.767l-10.25-.661c-5.638-.363-17.225-.519-25.75-.346l-15.5.315-.285 10.25-.285 10.25H599V784.807l-14.665.14c-8.066.077-15.041.371-15.5.655-.459.284-.835 2.739-.835 5.457V796h-10v10h-10v-10h-9.707l-.646-7.651c-.356-4.208-.647-8.933-.647-10.5V775h21v-21h9.707l.624-7.385c.343-4.062.342-11.037-.002-15.5l-.625-8.115H558v-10h-21v-10h-10v-11h-20v-10h-11v-21.07l-10.25.285-10.25.285-.267 25.75-.267 25.75H486v11h10v30h10v21h9.808l.715 10.5.716 10.5H527v19.93l-10.25.285-10.25.285-.305 4.75-.305 4.75H496v11h-52V846.693l-13.75.573c-7.562.315-16.788.323-20.5.017l-6.75-.557V837h10v-21h-10v-41h-9.784l-.716-10-.716-10h-8.488l-.642-8.25c-.353-4.538-.645-11.737-.648-16L382 723h-10v-31h-11v-10h-8.707l-.646-7.651c-.356-4.208-.647-11.183-.647-15.5V651h-10v-31h-10v-7.849c0-4.317-.291-11.292-.647-15.5l-.646-7.651H310v-9.93l-10.25-.285-10.25-.285-.285-10.25-.285-10.25H299v-10h11v-11h21v-10h52v-10l5.25-.235c2.887-.13 9.75-.242 15.25-.25l10-.015.267-25.75.267-25.75H403v5m475.667 15.667c-.367.366-.667 5.091-.667 10.5V506h-10v31h-9.808l-.715 10.5-.716 10.5H847v10h-10v21h-20v10h10v21h10v31h31v11.105l5.25-.303 5.25-.302.302-5.25.303-5.25H899v-19.895l5.25-.303 5.25-.302.302-5.25.303-5.25H920v-10h10v-21h10.982l-.108-4.25c-.059-2.337-.055-9.312.01-15.5L941 558h10v-20h10v-53h-40.833c-22.459 0-41.134.3-41.5.667m-319.103 64.04c-.542 1.425-.428 1.54.56.56.684-.679.991-1.486.683-1.793-.308-.308-.867.247-1.243 1.233m2.315.66c-.644 1.414-1.462 2.391-1.818 2.171-.355-.22-.711.461-.79 1.512-.079 1.051.272 2.168.781 2.482.509.315.669-.239.355-1.23-.538-1.7-.489-1.704.859-.069 1.33 1.612 1.511 1.551 2.619-.88.654-1.436 1.434-2.367 1.733-2.068.299.299.082 1.407-.483 2.463-.777 1.451-.698 1.919.324 1.919.788 0 1.111-.623.776-1.498-.395-1.027-.176-1.251.695-.712.995.614 1.031.339.17-1.271-1.364-2.548-1.403-3.491-.111-2.693.591.365.718-.093.316-1.141-.437-1.139-.817-1.317-1.086-.51-.313.939-.749.963-1.791.098-1.089-.904-1.624-.604-2.549 1.427m.361 1.006c-1.433 3.144-.349 4.228 1.536 1.536.912-1.301 1.103-2.43.513-3.02-.591-.591-1.357-.036-2.049 1.484M488.875 582.5c-.499 1.995-.368 3.173.478 4.301.711.947.388 1.454-1.189 1.866-1.846.483-2.164 1.284-2.164 5.45V599h10.105l-.303-5.25c-.295-5.131-.367-5.242-3.164-4.914-1.757.207-2.62-.056-2.234-.681.346-.559.199-1.282-.326-1.607-.525-.324-.784-1.481-.574-2.569.32-1.661-.249-2.999-.629-1.479m2.661 1.417c.171.871.399 1.808.506 2.083.107.275.13.871.052 1.324-.079.454.339.526.93.161.736-.455.751-1.051.048-1.898-.689-.831-.694-1.565-.015-2.244.68-.68.545-1.01-.411-1.01-.781 0-1.28.713-1.11 1.584M445 615v5h4.5c2.876 0 4.539-.451 4.607-1.25.059-.687.202-2.937.319-5l.211-3.75H445v5m10 10v5h10v-10h-10v5m-182 7.544c0 .116.6.709 1.333 1.318.997.827 1.334.773 1.334-.211 0-.725-.6-1.318-1.334-1.318-.733 0-1.333.095-1.333.211m-.675 2.114c.362.362.099 1.374-.584 2.25-1.096 1.406-1.038 1.433.498.229 1.564-1.227 1.586-3.137.035-3.137-.334 0-.311.296.051.658m1.749 2.753c-.902 1.087-.873 1.583.127 2.16.715.412.965.381.558-.069-.408-.45-.24-1.422.372-2.16.613-.738.889-1.342.614-1.342s-1.027.635-1.671 1.411M930 665.948v4.947l-5.25.303-5.25.302-.136 4c-.075 2.2-.188 4.563-.25 5.25-.075.818-1.841 1.25-5.114 1.25h-5v10h-10v11h9.895l.303-5.25.302-5.25 15.105-.275 15.106-.276.65-7.69c.357-4.229.358-11.193.001-15.474l-.65-7.785H930v4.948M755 718v5h9v-10h-9v5m185-.026v4.974l-15.25.276-15.25.276-.302 5.25-.303 5.25H889v10h-21v10h-17.849c-9.817 0-21.27.289-25.451.643l-7.602.642-.299 4.608-.299 4.607-5.25.302-5.25.303V775h-31v9.93l-10.25.285-10.25.285-.299 4.607-.299 4.608-7.602.642c-4.181.354-10.909.643-14.951.643H724v10h-11c-6.667 0-11 .394-11 1 0 1.97-.186 2.52-1.335 3.942-.904 1.118-.885 1.273.085.691.874-.525 1.25.041 1.25 1.88 0 2.115-.441 2.594-2.25 2.448-1.237-.1-5.737-.133-10-.072L682 816v11h-21v10h-30.89l-.305 4.75c-.168 2.612-.153 7.337.034 10.5l.339 5.75H640v10h11v31h9.761l.716 10.5.715 10.5H672v10h10v31h10v31h11v11h10v20h351v-31h-10v-31h-9.93l-.285-10.25-.285-10.25-5.25-.302-5.25-.303V909h-10v-31h-10v-10h-9.707l-.646-7.651c-.356-4.208-.647-13.433-.647-20.5V827h-10v-31h-10v-21h-10v-7.849c0-4.317-.291-11.292-.647-15.5l-.646-7.651H961v-31h-21v4.974m-287.571-.381c0 1.793.315 3.065.7 2.827.385-.238.894.133 1.131.824s.392-.581.344-2.827c-.103-4.813-2.175-5.598-2.175-.824m3.935-.038c.122 2.17.653 3.833 1.179 3.695.526-.138.964-.587.972-1 .009-.413.446-1.425.972-2.25 1.463-2.294 1.431-3.667-.084-3.667-.954 0-1.068.366-.375 1.201.69.831.474 1.626-.703 2.583-1.475 1.201-1.621 1.173-1.105-.208.327-.875.218-2.2-.242-2.944-.519-.841-.752.141-.614 2.59m-64.039 59.103c.362.362.099 1.374-.584 2.25-1.096 1.406-1.038 1.433.498.229 1.564-1.227 1.586-3.137.035-3.137-.334 0-.311.296.051.658m1.749 2.753c-.902 1.087-.873 1.583.127 2.16.715.412.965.381.558-.069-.408-.45-.24-1.422.372-2.16.613-.738.889-1.342.614-1.342s-1.027.635-1.671 1.411m2.801.089c-.069.275-.188.837-.265 1.25-.077.413-.537 1.425-1.022 2.25-.714 1.216-.628 1.265.455.26 1.263-1.172 2.255-4.26 1.369-4.26-.227 0-.468.225-.537.5m-86.952.75c-.539 1.764-.633 3.793-.152 3.313.729-.73 1.239-3.563.641-3.563-.227 0-.446.112-.489.25M591 781.378c0 .207.788.995 1.75 1.75 1.586 1.243 1.621 1.208.378-.378-1.307-1.666-2.128-2.195-2.128-1.372m104.901 25.872c-.442 1.113-.47 5.652-.033 5.215.613-.613 1.037-5.465.478-5.465-.19 0-.391.112-.445.25m3.022 0c-.539 1.764-.633 3.793-.152 3.313.729-.73 1.239-3.563.641-3.563-.227 0-.446.112-.489.25m-106.59 12.401c0 .984.337 1.038 1.334.211.733-.609 1.333-1.202 1.333-1.318 0-.116-.6-.211-1.333-.211a1.33 1.33 0 00-1.334 1.318m3.741 2.76c-.902 1.087-.873 1.583.127 2.16.715.412.965.381.558-.069-.408-.45-.24-1.422.372-2.16.613-.738.889-1.342.614-1.342s-1.027.635-1.671 1.411m-3.741 1.045c0 .801.383 1.22.85.931.467-.289.591-.944.274-1.456-.808-1.308-1.124-1.161-1.124.525m35.046 15.923c.127.86.509 1.842.85 2.184.342.341.518-.083.392-.942-.127-.86-.509-1.842-.85-2.184-.342-.341-.518.083-.392.942m-5.046 1.117c0 .823.938 2.285 2.084 3.25 2.038 1.716 2.047 1.711.404-.246-.923-1.1-1.673-2.375-1.666-2.833.006-.459-.176-1.021-.405-1.25-.229-.229-.417.256-.417 1.079m-72 1.155c0 .984.337 1.038 1.334.211.733-.609 1.333-1.202 1.333-1.318 0-.116-.6-.211-1.333-.211a1.33 1.33 0 00-1.334 1.318m2.59.599c-.539 1.764-.633 3.793-.152 3.313.729-.73 1.239-3.563.641-3.563-.227 0-.446.112-.489.25M621 843.378c0 .207.788.995 1.75 1.75 1.586 1.243 1.621 1.208.378-.378-1.307-1.666-2.128-2.195-2.128-1.372M558 873v5h-10.341c-5.688 0-17.119.293-25.403.652l-15.062.652-.705 9.848-.705 9.848H475v9.948l-15.25.276-15.25.276-.302 5.25-.303 5.25H434v10h-21l-.118 4.25c-.066 2.337-.082 4.538-.037 4.89.045.352-4.964.69-11.132.751-6.167.061-15.376.397-20.463.747l-9.25.636V961h-31v10h-12.849c-7.067 0-16.292.291-20.5.647l-7.651.646v8.515l-10.5.715-10.5.716V992h-21v9.948l-15.25.276-15.25.276-.302 5.25-.303 5.25H207v10h362v-81.826l3.25.21c7.13.459 6.75 2.565 6.75-37.419V868h-21v5m-152.107 58.25c-.426.995-.415 7.606.012 7.178.573-.573.955-7.428.413-7.428-.175 0-.366.112-.425.25m4.65 1.681c-.317.512-.193 1.167.274 1.456.467.289.85-.13.85-.931 0-1.686-.316-1.833-1.124-.525m-2.21 2.525c0 .801.383 1.22.85.931.467-.289.591-.944.274-1.456-.808-1.308-1.124-1.161-1.124.525m164.527 7.961c.455.596.742 2.326.637 3.846-.104 1.52.067 2.507.38 2.194 1.196-1.197.741-7.124-.547-7.124-.775 0-.964.437-.47 1.084m-2.431 3.109c0 1.858.225 3.154.5 2.878.753-.752.858-5.417.133-5.866-.349-.215-.633 1.129-.633 2.988m5.904-.07c0 .801.383 1.22.85.931.467-.289.591-.944.274-1.456-.808-1.308-1.124-1.161-1.124.525" fill="undefined" fill-rule="evenodd"/></svg>